<?xml version="1.0" standalone="no"?>
<!DOCTYPE svg PUBLIC "-//W3C//DTD SVG 20010904//EN"
 "http://www.w3.org/TR/2001/REC-SVG-20010904/DTD/svg10.dtd">
<svg version="1.0" xmlns="http://www.w3.org/2000/svg"
 width="300.000000pt" height="300.000000pt" viewBox="0 0 300.000000 300.000000"
 preserveAspectRatio="xMidYMid meet">
<metadata>
Created by potrace 1.14, written by Peter Selinger 2001-2017
</metadata>
<g transform="translate(0.000000,300.000000) scale(0.100000,-0.100000)"
fill="#000000" stroke="none">
<path d="M1311 2251 c-19 -19 -26 -44 -22 -78 2 -16 -9 -22 -55 -29 -259 -41
-434 -156 -499 -329 -26 -68 -31 -233 -9 -307 42 -141 246 -487 348 -589 l24
-25 -27 -22 c-56 -44 -80 -71 -100 -111 -12 -22 -25 -41 -29 -42 -4 0 -18 -2
-32 -5 -102 -18 -184 -129 -174 -234 5 -51 17 -75 61 -121 33 -35 34 -38 34
-120 -1 -102 -6 -128 -46 -222 -7 -16 26 -17 651 -15 l659 3 0 63 0 63 30 -63
30 -63 118 -3 c75 -2 117 1 117 8 0 5 -4 10 -8 10 -9 0 -89 162 -97 196 -3 10
-11 46 -19 79 -15 58 -15 60 7 85 12 14 26 28 31 31 4 4 16 30 26 59 19 56 18
112 -3 163 -39 92 -162 177 -249 172 -21 -2 -29 4 -37 25 -11 34 -72 94 -111
110 l-29 12 43 57 c63 82 109 151 131 196 11 22 26 47 33 57 8 9 15 22 16 30
1 7 10 31 20 53 31 69 63 214 65 290 2 82 -18 181 -51 252 -31 68 -129 161
-211 201 -121 58 -232 76 -508 82 -4 0 -10 15 -13 34 -8 40 -24 56 -65 62 -21
4 -36 -1 -50 -15z"/>
</g>
</svg>
